<svg width="40" height="40" viewBox="0 0 40 40" fill="none" xmlns="http://www.w3.org/2000/svg">
<path d="M3.67949 10.5773L20 1.1547L36.3205 10.5773V29.4226L20 38.8453L3.67949 29.4226V10.5773Z" stroke="#9C27B0" stroke-width="2"/>
<path d="M13.9347 27.5V12.9545H16.5696V19.6378H16.7472L22.4219 12.9545H25.6392L20.0142 19.4815L25.6889 27.5H22.5213L18.1818 21.2642L16.5696 23.1676V27.5H13.9347Z" fill="#9C27B0"/>
<path d="M27.7955 14.5H26.7202V11.5909H27.794C28.0904 11.5909 28.3456 11.6491 28.5597 11.7656C28.7746 11.8812 28.9403 12.0478 29.0568 12.2656C29.1733 12.4825 29.2315 12.742 29.2315 13.044C29.2315 13.3471 29.1733 13.6075 29.0568 13.8253C28.9413 14.0431 28.776 14.2102 28.5611 14.3267C28.3461 14.4422 28.0909 14.5 27.7955 14.5ZM27.4233 13.9006H27.7685C27.9313 13.9006 28.0691 13.8731 28.1818 13.8182C28.2955 13.7623 28.3812 13.6719 28.4389 13.5469C28.4976 13.4209 28.527 13.2533 28.527 13.044C28.527 12.8348 28.4976 12.6681 28.4389 12.544C28.3802 12.419 28.2936 12.3291 28.179 12.2741C28.0653 12.2183 27.9252 12.1903 27.7585 12.1903H27.4233V13.9006Z" fill="#9C27B0"/>
</svg>
